<?xml version="1.0" encoding="UTF-8" standalone="no"?>
<svg
   xmlns:dc="http://purl.org/dc/elements/1.1/"
   xmlns:cc="http://creativecommons.org/ns#"
   xmlns:rdf="http://www.w3.org/1999/02/22-rdf-syntax-ns#"
   xmlns:svg="http://www.w3.org/2000/svg"
   xmlns="http://www.w3.org/2000/svg"
   xmlns:sodipodi="http://sodipodi.sourceforge.net/DTD/sodipodi-0.dtd"
   xmlns:inkscape="http://www.inkscape.org/namespaces/inkscape"
   inkscape:version="1.0alpha (9dee831, 2019-01-15)"
   sodipodi:docname="keyhint.svg"
   id="svg66"
   version="1.1"
   enable-background="new 0 0 64 64"
   viewBox="0 0 64 64">
  <metadata
     id="metadata72">
    <rdf:RDF>
      <cc:Work
         rdf:about="">
        <dc:format>image/svg+xml</dc:format>
        <dc:type
           rdf:resource="http://purl.org/dc/dcmitype/StillImage" />
        <dc:title></dc:title>
      </cc:Work>
    </rdf:RDF>
  </metadata>
  <defs
     id="defs70" />
  <sodipodi:namedview
     inkscape:current-layer="text76"
     inkscape:window-maximized="1"
     inkscape:window-y="0"
     inkscape:window-x="0"
     inkscape:cy="32"
     inkscape:cx="51.285599"
     inkscape:zoom="12.21875"
     showgrid="false"
     id="namedview68"
     inkscape:window-height="1006"
     inkscape:window-width="1920"
     inkscape:pageshadow="2"
     inkscape:pageopacity="0"
     guidetolerance="10"
     gridtolerance="10"
     objecttolerance="10"
     borderopacity="1"
     inkscape:document-rotation="0"
     bordercolor="#666666"
     pagecolor="#ffffff" />
  <path
     id="path60"
     d="m62 52c0 5.523-4.478 10-10 10h-40c-5.522 0-10-4.477-10-10v-40c0-5.523 4.478-10 10-10h40c5.522 0 10 4.477 10 10v40"
     fill="#d0d0d0"
     style="fill:#1a1a1a" />
  <path
     id="path62"
     d="M57,45.666C57,50.27,53.269,54,48.667,54H15.333C10.731,54,7,50.27,7,45.666V12.333    C7,7.73,10.731,4,15.333,4h33.334C53.269,4,57,7.73,57,12.333V45.666z"
     fill="#fff"
     style="fill:#333333" />
  <g
     id="text76"
     style="font-style:normal;font-weight:normal;font-size:33.977px;line-height:1.25;font-family:sans-serif;fill:#c83771;fill-opacity:1;stroke:none;stroke-width:0.849425"
     transform="scale(0.95833927,1.0434718)"
     aria-label="KH">
    <path
       id="path106"
       style="font-style:normal;font-variant:normal;font-weight:bold;font-stretch:condensed;font-family:'Fira Sans Condensed';-inkscape-font-specification:'Fira Sans Condensed, Bold Condensed';fill:#c83771;stroke-width:0.849425"
       d="m 20.706971,16.027714 h -5.43632 v 23.546062 h 5.43632 z m 12.299674,0 h -5.538251 l -6.591538,10.974572 6.591538,12.57149 h 6.081883 l -7.13517,-12.979214 z" />
    <path
       id="path108"
       style="font-style:normal;font-variant:normal;font-weight:bold;font-stretch:condensed;font-family:'Fira Sans Condensed';-inkscape-font-specification:'Fira Sans Condensed, Bold Condensed';fill:#c83771;stroke-width:0.849425"
       d="m 46.294306,39.573776 h 5.436321 V 16.027714 h -5.436321 v 9.173791 h -5.878021 v -9.173791 h -5.43632 v 23.546062 h 5.43632 V 29.44863 h 5.878021 z" />
  </g>
</svg>
